<?xml version="1.0" encoding="utf-8"?>
<!-- Generator: Adobe Illustrator 23.0.3, SVG Export Plug-In . SVG Version: 6.00 Build 0)  -->
<svg version="1.1" id="Layer_1" xmlns="http://www.w3.org/2000/svg" xmlns:xlink="http://www.w3.org/1999/xlink" x="0px" y="0px"
	 viewBox="0 0 50 50" style="enable-background:new 0 0 50 50;" xml:space="preserve">
<style type="text/css">
	.st0{fill:#2980B9;}
	.st1{fill:#037CC6;}
	.st2{fill:#9B59B6;}
	.st3{fill:#27AE60;}
	.st4{fill:#E74C3C;}
	.st5{fill:#34495E;}
	.st6{fill:#D35400;}
	.st7{fill:#E22D2D;}
	.st8{fill:#1ABC9C;}
	.st9{fill:#F39C12;}
	.st10{fill:#E67E22;}
	.st11{fill:#0C0C0C;}
	.st12{fill:none;stroke:#0C0C0C;stroke-width:2;stroke-linecap:round;stroke-linejoin:round;stroke-miterlimit:10;}
	.st13{fill:#FFFFFF;stroke:#0C0C0C;stroke-width:2;stroke-linecap:round;stroke-linejoin:round;stroke-miterlimit:10;}
</style>
<g>
	<g>
		<path class="st2" d="M25.2,46.5C13.9,46.5,4.7,37.3,4.7,26S13.9,5.5,25.2,5.5S45.8,14.7,45.8,26S36.5,46.5,25.2,46.5z M25.2,7.5
			C15,7.5,6.7,15.8,6.7,26S15,44.5,25.2,44.5S43.8,36.2,43.8,26S35.4,7.5,25.2,7.5z"/>
	</g>
</g>
<g>
	<g>
		<path class="st2" d="M25.2,17.3c-0.6,0-1-0.4-1-1v-1.7c0-0.6,0.4-1,1-1s1,0.4,1,1v1.7C26.2,16.9,25.8,17.3,25.2,17.3z"/>
		<path class="st2" d="M25.2,38.4c-0.6,0-1-0.4-1-1V20.3c0-0.6,0.4-1,1-1s1,0.4,1,1v17.1C26.2,38,25.8,38.4,25.2,38.4z"/>
	</g>
</g>
</svg>
