<?xml version="1.0" encoding="iso-8859-1"?>
<!-- Generator: Adobe Illustrator 21.0.0, SVG Export Plug-In . SVG Version: 6.00 Build 0)  -->
<svg version="1.1" id="Capa_1" xmlns="http://www.w3.org/2000/svg" xmlns:xlink="http://www.w3.org/1999/xlink" x="0px" y="0px"
	 viewBox="0 0 512 512" style="enable-background:new 0 0 512 512;" xml:space="preserve">
<g id="XMLID_117_">
	<g id="XMLID_118_">
		<path style="fill:#B7C1C6;" d="M33.184,440.13L33.184,440.13C14.857,440.13,0,425.273,0,406.946l0-247.719
			c0-5.69,4.612-10.302,10.302-10.302h56.066v258.021C66.367,425.273,51.511,440.13,33.184,440.13z"/>
		<path id="XMLID_119_" style="fill:#93A3AF;" d="M66.364,148.928v258.019c0,18.327-14.855,33.182-33.182,33.182
			c-3.214,0-6.325-0.464-9.272-1.308c13.815-4.018,23.91-16.761,23.91-31.874V148.928H66.364z"/>
		<path id="XMLID_120_" style="fill:#EBEEF2;" d="M512,82.168v324.778c0,18.329-14.858,33.187-33.187,33.187H33.221
			c18.317-0.024,33.152-14.871,33.152-33.187V82.168c0-5.69,4.612-10.302,10.302-10.302h425.023
			C507.388,71.866,512,76.479,512,82.168z"/>
		<path id="XMLID_121_" style="fill:#D3D8DF;" d="M512,82.172v324.775c0,18.327-14.855,33.182-33.182,33.182h-27.166
			c18.327,0,33.192-14.855,33.192-33.182V82.172c0-5.697-4.615-10.302-10.302-10.302h27.156C507.385,71.871,512,76.475,512,82.172z"
			/>
	</g>
	<g id="XMLID_122_">
		<g id="XMLID_123_">
			<g id="XMLID_124_">
				<g id="XMLID_125_">
					<g id="XMLID_126_">
						<g id="XMLID_127_">
							<path id="XMLID_128_" style="fill:#A0D37D;" d="M300.146,129.472v105.034c0,5.69-4.612,10.302-10.302,10.302H123.208
								c-5.69,0-10.302-4.612-10.302-10.302V129.472c0-5.69,4.612-10.302,10.302-10.302h166.636
								C295.534,119.171,300.146,123.783,300.146,129.472z"/>
							<path id="XMLID_129_" style="fill:#D88852;" d="M300.146,194.156v40.35c0,5.69-4.612,10.302-10.302,10.302h-130.26
								l83.397-83.397c2.253-2.253,5.794-2.578,8.419-0.773l35.798,24.617L300.146,194.156z"/>
							<path id="XMLID_130_" style="fill:#E39F6E;" d="M220.71,244.808h-97.502c-5.69,0-10.302-4.612-10.302-10.302v-19.785
								l41.523-28.551c2.627-1.806,6.168-1.481,8.422,0.773L220.71,244.808z"/>
						</g>
					</g>
				</g>
			</g>
		</g>
	</g>
	<path id="XMLID_131_" style="fill:#93A3AF;" d="M451.652,301.896H112.906c-4.267,0-7.726-3.459-7.726-7.726
		s3.459-7.726,7.726-7.726h338.745c4.267,0,7.726,3.459,7.726,7.726S455.919,301.896,451.652,301.896z"/>
	<path id="XMLID_132_" style="fill:#93A3AF;" d="M451.652,331.844H112.906c-4.267,0-7.726-3.459-7.726-7.726
		s3.459-7.726,7.726-7.726h338.745c4.267,0,7.726,3.459,7.726,7.726S455.919,331.844,451.652,331.844z"/>
	<path id="XMLID_133_" style="fill:#93A3AF;" d="M451.652,361.79H112.906c-4.267,0-7.726-3.459-7.726-7.726s3.459-7.726,7.726-7.726
		h338.745c4.267,0,7.726,3.459,7.726,7.726S455.919,361.79,451.652,361.79z"/>
	<path id="XMLID_134_" style="fill:#93A3AF;" d="M391.582,391.738h-22.016c-4.267,0-7.726-3.459-7.726-7.726
		c0-4.268,3.459-7.726,7.726-7.726h22.016c4.267,0,7.726,3.459,7.726,7.726C399.309,388.279,395.85,391.738,391.582,391.738z"/>
	<path id="XMLID_135_" style="fill:#93A3AF;" d="M339.046,391.738H112.906c-4.267,0-7.726-3.459-7.726-7.726
		c0-4.268,3.459-7.726,7.726-7.726h226.139c4.267,0,7.726,3.459,7.726,7.726C346.772,388.279,343.313,391.738,339.046,391.738z"/>
	<g id="XMLID_136_">
		<path style="fill:#EB5777;" d="M460.086,159.475H349.348c-5.69,0-10.302-4.612-10.302-10.302v-19.701
			c0-5.69,4.612-10.302,10.302-10.302h110.738c5.69,0,10.302,4.612,10.302,10.302v19.701
			C470.388,154.863,465.775,159.475,460.086,159.475z"/>
	</g>
	<g id="XMLID_137_">
		<path style="fill:#5F9EEB;" d="M460.086,244.808H349.348c-5.69,0-10.302-4.612-10.302-10.302v-42.215
			c0-5.69,4.612-10.302,10.302-10.302h110.738c5.69,0,10.302,4.612,10.302,10.302v42.215
			C470.388,240.196,465.775,244.808,460.086,244.808z"/>
	</g>
</g>
<g>
</g>
<g>
</g>
<g>
</g>
<g>
</g>
<g>
</g>
<g>
</g>
<g>
</g>
<g>
</g>
<g>
</g>
<g>
</g>
<g>
</g>
<g>
</g>
<g>
</g>
<g>
</g>
<g>
</g>
</svg>
