<?xml version="1.0" encoding="UTF-8" standalone="no"?> <svg id="outline_ok" data-name="outline ok" xmlns="http://www.w3.org/2000/svg" viewBox="0 0 64 64"><path d="M34.857,53H29.143a1,1,0,0,1-1-.905L27.6,46.326a14.808,14.808,0,0,1-2.616-1.084l-4.467,3.691a1,1,0,0,1-1.344-.064l-4.04-4.04a1,1,0,0,1-.064-1.344l3.691-4.467A14.808,14.808,0,0,1,17.674,36.4l-5.769-.549a1,1,0,0,1-.9-1V29.143a1,1,0,0,1,.9-1l5.769-.549a14.808,14.808,0,0,1,1.084-2.616l-3.691-4.467a1,1,0,0,1,.064-1.344l4.04-4.04a1,1,0,0,1,1.344-.064l4.467,3.691A14.808,14.808,0,0,1,27.6,17.674l.549-5.769a1,1,0,0,1,1-.9h5.714a1,1,0,0,1,1,.9l.549,5.769a14.808,14.808,0,0,1,2.616,1.084l4.467-3.691a1,1,0,0,1,1.344.064l4.04,4.04a1,1,0,0,1,.064,1.344l-3.691,4.467A14.808,14.808,0,0,1,46.326,27.6l5.769.549a1,1,0,0,1,.905,1v5.714a1,1,0,0,1-.905,1l-5.769.549a14.808,14.808,0,0,1-1.084,2.616l3.691,4.467a1,1,0,0,1-.064,1.344l-4.04,4.04a1,1,0,0,1-1.344.064l-4.467-3.691A14.808,14.808,0,0,1,36.4,46.326L35.853,52.1A1,1,0,0,1,34.857,53Zm-4.8-2h3.9l.529-5.546a1,1,0,0,1,.747-.874,12.878,12.878,0,0,0,3.391-1.405,1,1,0,0,1,1.148.09l4.3,3.547,2.754-2.754-3.547-4.3a1,1,0,0,1-.09-1.148,12.878,12.878,0,0,0,1.405-3.391,1,1,0,0,1,.874-.747L51,33.948v-3.9l-5.546-.529a1,1,0,0,1-.874-.747,12.878,12.878,0,0,0-1.405-3.391,1,1,0,0,1,.09-1.148l3.547-4.295-2.754-2.754-4.3,3.547a1,1,0,0,1-1.148.09,12.878,12.878,0,0,0-3.391-1.4,1,1,0,0,1-.747-.874L33.948,13h-3.9l-.529,5.546a1,1,0,0,1-.747.874,12.878,12.878,0,0,0-3.391,1.4,1,1,0,0,1-1.148-.09l-4.295-3.547-2.755,2.754,3.548,4.295a1,1,0,0,1,.09,1.148,12.878,12.878,0,0,0-1.4,3.391,1,1,0,0,1-.874.747L13,30.052v3.9l5.546.529a1,1,0,0,1,.874.747,12.878,12.878,0,0,0,1.4,3.391,1,1,0,0,1-.09,1.148l-3.548,4.3,2.755,2.754,4.295-3.547a1,1,0,0,1,1.148-.09,12.878,12.878,0,0,0,3.391,1.405,1,1,0,0,1,.747.874ZM52,34.857h0ZM32,40a8,8,0,1,1,8-8A8.009,8.009,0,0,1,32,40Zm0-14a6,6,0,1,0,6,6A6.006,6.006,0,0,0,32,26Z" style="fill:#231f20"/><path d="M32,63A31,31,0,1,1,63,32,31.034,31.034,0,0,1,32,63ZM32,3A29,29,0,1,0,61,32,29.034,29.034,0,0,0,32,3Z" style="fill:#231f20"/></svg>