<?xml version="1.0" encoding="utf-8"?>
<!-- Generator: Adobe Illustrator 23.0.3, SVG Export Plug-In . SVG Version: 6.00 Build 0)  -->
<svg version="1.1" id="Layer_1" xmlns="http://www.w3.org/2000/svg" xmlns:xlink="http://www.w3.org/1999/xlink" x="0px" y="0px"
	 viewBox="0 0 512 512" style="enable-background:new 0 0 512 512;" xml:space="preserve">
<style type="text/css">
	.st0{fill:url(#SVGID_1_);}
	.st1{fill:url(#SVGID_2_);}
	.st2{fill:url(#SVGID_3_);}
	.st3{fill:url(#SVGID_4_);}
	.st4{fill:url(#SVGID_5_);}
	.st5{fill:url(#SVGID_6_);}
	.st6{fill:url(#SVGID_7_);}
	.st7{fill:url(#SVGID_8_);}
	.st8{fill:url(#SVGID_9_);}
	.st9{fill:url(#SVGID_10_);}
	.st10{fill:url(#SVGID_11_);}
	.st11{fill:url(#SVGID_12_);}
	.st12{fill:url(#SVGID_13_);}
	.st13{fill:url(#SVGID_14_);}
	.st14{fill:url(#SVGID_15_);}
	.st15{fill:url(#SVGID_16_);}
	.st16{fill:url(#SVGID_17_);}
	.st17{fill:url(#SVGID_18_);}
	.st18{fill:url(#SVGID_19_);}
	.st19{fill:url(#SVGID_20_);}
	.st20{fill:url(#SVGID_21_);}
	.st21{fill:url(#SVGID_22_);}
	.st22{fill:url(#SVGID_23_);}
	.st23{fill:url(#SVGID_24_);}
	.st24{fill:url(#SVGID_25_);}
	.st25{fill:url(#SVGID_26_);}
	.st26{fill:url(#SVGID_27_);}
	.st27{fill:url(#SVGID_28_);}
	.st28{fill:url(#SVGID_29_);}
	.st29{fill:url(#SVGID_30_);}
	.st30{fill:url(#SVGID_31_);}
	.st31{fill:url(#SVGID_32_);}
	.st32{fill:url(#SVGID_33_);}
	.st33{fill:url(#SVGID_34_);}
	.st34{fill:url(#SVGID_35_);}
	.st35{fill:url(#SVGID_36_);}
	.st36{fill:url(#SVGID_37_);}
	.st37{fill:url(#SVGID_38_);}
	.st38{fill:url(#SVGID_39_);}
	.st39{fill:url(#SVGID_40_);}
	.st40{fill:url(#SVGID_41_);}
	.st41{fill:url(#SVGID_42_);}
	.st42{fill:url(#SVGID_43_);}
	.st43{fill:url(#SVGID_44_);}
	.st44{fill:url(#SVGID_45_);}
	.st45{fill:url(#SVGID_46_);}
	.st46{fill:url(#SVGID_47_);}
	.st47{fill:url(#SVGID_48_);}
	.st48{fill:url(#SVGID_49_);}
	.st49{fill:url(#SVGID_50_);}
	.st50{fill:url(#SVGID_51_);}
	.st51{fill:url(#SVGID_52_);}
	.st52{fill:url(#SVGID_53_);}
	.st53{fill:url(#SVGID_54_);}
	.st54{fill:url(#SVGID_55_);}
	.st55{fill:url(#SVGID_56_);}
	.st56{fill:url(#SVGID_57_);}
	.st57{fill:url(#SVGID_58_);}
	.st58{fill:url(#SVGID_59_);}
	.st59{fill:url(#SVGID_60_);}
	.st60{fill:url(#SVGID_61_);}
	.st61{fill:url(#SVGID_62_);}
	.st62{fill:url(#SVGID_63_);}
	.st63{fill:url(#SVGID_64_);}
	.st64{fill:url(#SVGID_65_);}
	.st65{fill:url(#SVGID_66_);}
	.st66{fill:url(#SVGID_67_);}
	.st67{fill:url(#SVGID_68_);}
	.st68{fill:url(#SVGID_69_);}
	.st69{fill:url(#SVGID_70_);}
	.st70{fill:url(#SVGID_71_);}
	.st71{fill:url(#SVGID_72_);}
	.st72{fill:url(#SVGID_73_);}
	.st73{fill:url(#SVGID_74_);}
	.st74{fill:url(#SVGID_75_);}
	.st75{fill:url(#SVGID_76_);}
	.st76{fill:url(#SVGID_77_);}
	.st77{fill:url(#SVGID_78_);}
	.st78{fill:url(#SVGID_79_);}
	.st79{fill:url(#SVGID_80_);}
	.st80{fill:url(#SVGID_81_);}
	.st81{fill:url(#SVGID_82_);}
	.st82{fill:url(#SVGID_83_);}
	.st83{fill:url(#SVGID_84_);}
	.st84{fill:url(#SVGID_85_);}
	.st85{fill:url(#SVGID_86_);}
	.st86{fill:url(#SVGID_87_);}
	.st87{fill:url(#SVGID_88_);}
	.st88{fill:url(#SVGID_89_);}
	.st89{fill:url(#SVGID_90_);}
	.st90{fill:url(#SVGID_91_);}
	.st91{fill:url(#SVGID_92_);}
	.st92{fill:url(#SVGID_93_);}
	.st93{fill:url(#SVGID_94_);}
	.st94{fill:url(#SVGID_95_);}
	.st95{fill:url(#SVGID_96_);}
	.st96{fill:url(#SVGID_97_);}
	.st97{fill:url(#SVGID_98_);}
	.st98{fill:url(#SVGID_99_);}
	.st99{fill:url(#SVGID_100_);}
	.st100{fill:url(#SVGID_101_);}
	.st101{fill:url(#SVGID_102_);}
	.st102{fill:url(#SVGID_103_);}
	.st103{fill:url(#SVGID_104_);}
	.st104{fill:url(#SVGID_105_);}
	.st105{fill:url(#SVGID_106_);}
	.st106{fill:url(#SVGID_107_);}
	.st107{fill:url(#SVGID_108_);}
	.st108{fill:url(#SVGID_109_);}
	.st109{fill:url(#SVGID_110_);}
	.st110{fill:url(#SVGID_111_);}
	.st111{fill:url(#SVGID_112_);}
	.st112{fill:url(#SVGID_113_);}
	.st113{fill:url(#SVGID_114_);}
	.st114{fill:url(#SVGID_115_);}
	.st115{fill:url(#SVGID_116_);}
	.st116{fill:url(#SVGID_117_);}
	.st117{fill:url(#SVGID_118_);}
	.st118{fill:url(#SVGID_119_);}
	.st119{fill:url(#SVGID_120_);}
	.st120{fill:url(#SVGID_121_);}
	.st121{fill:url(#SVGID_122_);}
	.st122{fill:url(#SVGID_123_);}
	.st123{fill:url(#SVGID_124_);}
	.st124{fill:url(#SVGID_125_);}
	.st125{fill:url(#SVGID_126_);}
	.st126{fill:url(#SVGID_127_);}
	.st127{fill:url(#SVGID_128_);}
	.st128{fill:url(#SVGID_129_);}
	.st129{fill:url(#SVGID_130_);}
	.st130{fill:url(#SVGID_131_);}
	.st131{fill:url(#SVGID_132_);}
	.st132{fill:url(#SVGID_133_);}
	.st133{fill:url(#SVGID_134_);}
	.st134{fill:url(#SVGID_135_);}
	.st135{fill:url(#SVGID_136_);}
	.st136{fill:url(#SVGID_137_);}
	.st137{fill:url(#SVGID_138_);}
	.st138{fill:url(#SVGID_139_);}
	.st139{fill:url(#SVGID_140_);}
	.st140{fill:url(#SVGID_141_);}
	.st141{fill:url(#SVGID_142_);}
	.st142{fill:url(#SVGID_143_);}
	.st143{fill:url(#SVGID_144_);}
	.st144{fill:url(#SVGID_145_);}
	.st145{fill:url(#SVGID_146_);}
	.st146{fill:url(#SVGID_147_);}
	.st147{fill:url(#SVGID_148_);}
	.st148{fill:url(#SVGID_149_);}
	.st149{fill:url(#SVGID_150_);}
	.st150{fill:url(#SVGID_151_);}
	.st151{fill:url(#SVGID_152_);}
	.st152{fill:url(#SVGID_153_);}
	.st153{fill:url(#SVGID_154_);}
	.st154{fill:url(#SVGID_155_);}
	.st155{fill:url(#SVGID_156_);}
	.st156{fill:url(#SVGID_157_);}
	.st157{fill:url(#SVGID_158_);}
	.st158{fill:url(#SVGID_159_);}
	.st159{fill:url(#SVGID_160_);}
	.st160{fill:url(#SVGID_161_);}
	.st161{fill:url(#SVGID_162_);}
	.st162{fill:url(#SVGID_163_);}
	.st163{fill:url(#SVGID_164_);}
	.st164{fill:url(#SVGID_165_);}
	.st165{fill:url(#SVGID_166_);}
	.st166{fill:url(#SVGID_167_);}
	.st167{fill:url(#SVGID_168_);}
	.st168{fill:url(#SVGID_169_);}
	.st169{fill:url(#SVGID_170_);}
	.st170{fill:url(#SVGID_171_);}
	.st171{fill:url(#SVGID_172_);}
	.st172{fill:url(#SVGID_173_);}
	.st173{fill:url(#SVGID_174_);}
	.st174{fill:url(#SVGID_175_);}
	.st175{fill:url(#SVGID_176_);}
	.st176{fill:url(#SVGID_177_);}
	.st177{fill:url(#SVGID_178_);}
	.st178{fill:url(#SVGID_179_);}
	.st179{fill:url(#SVGID_180_);}
	.st180{fill:url(#SVGID_181_);}
	.st181{fill:url(#SVGID_182_);}
	.st182{fill:url(#SVGID_183_);}
	.st183{fill:url(#SVGID_184_);}
	.st184{fill:url(#SVGID_185_);}
	.st185{fill:url(#SVGID_186_);}
	.st186{fill:url(#SVGID_187_);}
	.st187{fill:url(#SVGID_188_);}
	.st188{fill:url(#SVGID_189_);}
	.st189{fill:url(#SVGID_190_);}
	.st190{fill:url(#SVGID_191_);}
	.st191{fill:url(#SVGID_192_);}
	.st192{fill:url(#SVGID_193_);}
	.st193{fill:url(#SVGID_194_);}
	.st194{fill:url(#SVGID_195_);}
	.st195{fill:url(#SVGID_196_);}
	.st196{fill:url(#SVGID_197_);}
	.st197{fill:url(#SVGID_198_);}
	.st198{fill:url(#SVGID_199_);}
	.st199{fill:url(#SVGID_200_);}
	.st200{fill:url(#SVGID_201_);}
	.st201{fill:url(#SVGID_202_);}
	.st202{fill:url(#SVGID_203_);}
	.st203{fill:url(#SVGID_204_);}
	.st204{fill:url(#SVGID_205_);}
	.st205{fill:url(#SVGID_206_);}
	.st206{fill:url(#SVGID_207_);}
	.st207{fill:url(#SVGID_208_);}
	.st208{fill:url(#SVGID_209_);}
	.st209{fill:url(#SVGID_210_);}
	.st210{fill:url(#SVGID_211_);}
	.st211{fill:url(#SVGID_212_);}
	.st212{fill:url(#SVGID_213_);}
	.st213{fill:url(#SVGID_214_);}
	.st214{fill:url(#SVGID_215_);}
	.st215{fill:url(#SVGID_216_);}
	.st216{fill:url(#SVGID_217_);}
	.st217{fill:url(#SVGID_218_);}
	.st218{fill:url(#SVGID_219_);}
	.st219{fill:url(#SVGID_220_);}
	.st220{fill:url(#SVGID_221_);}
	.st221{fill:url(#SVGID_222_);}
	.st222{fill:url(#SVGID_223_);}
	.st223{fill:url(#SVGID_224_);}
	.st224{fill:url(#SVGID_225_);}
	.st225{fill:url(#SVGID_226_);}
	.st226{fill:url(#SVGID_227_);}
	.st227{fill:url(#SVGID_228_);}
	.st228{fill:url(#SVGID_229_);}
	.st229{fill:url(#SVGID_230_);}
	.st230{fill:url(#SVGID_231_);}
	.st231{fill:url(#SVGID_232_);}
	.st232{fill:url(#SVGID_233_);}
	.st233{fill:url(#SVGID_234_);}
	.st234{fill:url(#SVGID_235_);}
	.st235{fill:url(#SVGID_236_);}
	.st236{fill:url(#SVGID_237_);}
	.st237{fill:url(#SVGID_238_);}
	.st238{fill:url(#SVGID_239_);}
	.st239{fill:url(#SVGID_240_);}
	.st240{fill:url(#SVGID_241_);}
	.st241{fill:url(#SVGID_242_);}
	.st242{fill:url(#SVGID_243_);}
	.st243{fill:url(#SVGID_244_);}
	.st244{fill:url(#SVGID_245_);}
	.st245{fill:url(#SVGID_246_);}
	.st246{fill:url(#SVGID_247_);}
	.st247{fill:url(#SVGID_248_);}
	.st248{fill:url(#SVGID_249_);}
	.st249{fill:url(#SVGID_250_);}
	.st250{fill:url(#SVGID_251_);}
	.st251{fill:url(#SVGID_252_);}
	.st252{fill:url(#SVGID_253_);}
	.st253{fill:url(#SVGID_254_);}
	.st254{fill:url(#SVGID_255_);}
	.st255{fill:url(#SVGID_256_);}
	.st256{fill:url(#SVGID_257_);}
	.st257{fill:url(#SVGID_258_);}
	.st258{fill:url(#SVGID_259_);}
	.st259{fill:url(#SVGID_260_);}
	.st260{fill:url(#SVGID_261_);}
	.st261{fill:url(#SVGID_262_);}
	.st262{fill:url(#SVGID_263_);}
	.st263{fill:url(#SVGID_264_);}
	.st264{fill:url(#SVGID_265_);}
	.st265{fill:url(#SVGID_266_);}
	.st266{fill:url(#SVGID_267_);}
	.st267{fill:url(#SVGID_268_);}
	.st268{fill:url(#SVGID_269_);}
	.st269{fill:url(#SVGID_270_);}
	.st270{fill:url(#SVGID_271_);}
	.st271{fill:url(#SVGID_272_);}
	.st272{fill:url(#SVGID_273_);}
	.st273{fill:url(#SVGID_274_);}
	.st274{fill:url(#SVGID_275_);}
	.st275{fill:url(#SVGID_276_);}
	.st276{fill:url(#SVGID_277_);}
	.st277{fill:url(#SVGID_278_);}
	.st278{fill:url(#SVGID_279_);}
	.st279{fill:url(#SVGID_280_);}
	.st280{fill:url(#SVGID_281_);}
	.st281{fill:url(#SVGID_282_);}
	.st282{fill:url(#SVGID_283_);}
	.st283{fill:url(#SVGID_284_);}
	.st284{fill:url(#SVGID_285_);}
	.st285{fill:url(#SVGID_286_);}
	.st286{fill:url(#SVGID_287_);}
</style>
<g>
	<g>
		<g>
			<linearGradient id="SVGID_1_" gradientUnits="userSpaceOnUse" x1="0" y1="256" x2="512" y2="256">
				<stop  offset="0" style="stop-color:#EE3C32"/>
				<stop  offset="1" style="stop-color:#FA7D00"/>
			</linearGradient>
			<path class="st0" d="M482,26H30C13.5,26,0,39.5,0,56v300c0,16.5,13.5,30,30,30h176v41c-19.6,4-35,19.4-39,39h-31
				c-5.5,0-10,4.5-10,10s4.5,10,10,10h240c5.5,0,10-4.5,10-10s-4.5-10-10-10h-31c-4-19.6-19.4-35-39-39v-41h176
				c16.5,0,30-13.5,30-30V56C512,39.5,498.5,26,482,26z M324.3,466H187.7c4.1-11.6,15.2-20,28.3-20h80
				C309,446,320.2,454.4,324.3,466z M226,426v-40h60v40H226z M492,356c0,5.5-4.5,10-10,10H30c-5.5,0-10-4.5-10-10v-51h472V356z
				 M492,285H20V56c0-5.5,4.5-10,10-10h452c5.5,0,10,4.5,10,10V285z"/>
		</g>
	</g>
	<g>
		<g>
			<linearGradient id="SVGID_2_" gradientUnits="userSpaceOnUse" x1="227" y1="336" x2="287" y2="336">
				<stop  offset="0" style="stop-color:#EE3C32"/>
				<stop  offset="1" style="stop-color:#FA7D00"/>
			</linearGradient>
			<path class="st1" d="M277,326h-40c-5.5,0-10,4.5-10,10s4.5,10,10,10h40c5.5,0,10-4.5,10-10S282.5,326,277,326z"/>
		</g>
	</g>
	<g>
		<g>
			<linearGradient id="SVGID_3_" gradientUnits="userSpaceOnUse" x1="105.501" y1="165.2905" x2="425.5" y2="165.2905">
				<stop  offset="0" style="stop-color:#EE3C32"/>
				<stop  offset="1" style="stop-color:#FA7D00"/>
			</linearGradient>
			<path class="st2" d="M395.5,65.3c-16.5,0-30,13.5-30,30c0,4.6,1,8.9,2.9,12.9l-80,80c-4-1.9-8.4-2.9-12.9-2.9
				c-4.6,0-9,1-12.9,2.9l-20-20c1.9-4,2.9-8.4,2.9-12.9c0-16.5-13.5-30-30-30s-30,13.5-30,30c0,4.6,1,8.9,2.9,12.9l-40,40
				c-4-1.9-8.4-2.9-12.9-2.9c-16.5,0-30,13.5-30,30s13.5,30,30,30s30-13.5,30-30c0-4.6-1-9-2.9-12.9l40-40c4,1.9,8.4,2.9,12.9,2.9
				s8.9-1,12.9-2.9l20,20c-1.9,4-2.9,8.4-2.9,12.9c0,16.5,13.5,30,30,30s30-13.5,30-30c0-4.6-1-9-2.9-12.9l80-80
				c4,1.9,8.4,2.9,12.9,2.9c16.5,0,30-13.5,30-30S412,65.3,395.5,65.3z M135.5,245.3c-5.5,0-10-4.5-10-10s4.5-10,10-10
				c5.4,0,10,4.4,10,10C145.5,240.8,141,245.3,135.5,245.3z M215.5,165.3c-5.5,0-10-4.5-10-10c0-5.5,4.5-10,10-10s10,4.5,10,10
				C225.5,160.8,221,165.3,215.5,165.3z M275.5,225.3c-5.5,0-10-4.5-10-10c0-5.6,4.5-10,10-10c5.5,0,10,4.4,10,10
				C285.5,220.8,281,225.3,275.5,225.3z M395.5,105.3c-5.5,0-10-4.5-10-10c0-5.5,4.5-10,10-10s10,4.5,10,10S401,105.3,395.5,105.3z"
				/>
		</g>
	</g>
</g>
</svg>
